<?xml version="1.0" encoding="UTF-8"?>
<svg width="91px" height="28px" viewBox="0 0 91 28" version="1.1" xmlns="http://www.w3.org/2000/svg" xmlns:xlink="http://www.w3.org/1999/xlink">
    <!-- Generator: sketchtool 52.6 (67491) - http://www.bohemiancoding.com/sketch -->
    <title>1B265B93-224A-4CE9-B24C-576A724D600D</title>
    <desc>Created with sketchtool.</desc>
    <g id="CRO" stroke="none" stroke-width="1" fill="none" fill-rule="evenodd">
        <g id="BAXI-CustomerSupport_01_03" transform="translate(-210.000000, -26.000000)" fill="#005B99">
            <g id="Masthead">
                <g id="BAXI" transform="translate(210.000000, 26.000000)">
                    <path d="M9.54736433,22.5544406 C9.54736433,22.5544406 13.423264,22.5544406 14.2378915,22.5544406 C15.9984439,22.5544406 16.8393309,21.278718 16.8393309,19.5533922 C16.8393309,18.146473 16.2963431,16.3480605 13.6992803,16.3480605 C13.0290799,16.3480605 9.54736433,16.3480605 9.54736433,16.3480605 L9.54736433,22.5544406 Z M9.54736433,10.8989067 C9.54736433,10.8989067 13.2073527,10.8989067 14.0216884,10.8989067 C15.0936588,10.8989067 16.3532387,10.1506665 16.3532387,8.17403025 C16.3532387,6.28755429 15.4849251,5.44915381 13.6992803,5.44915381 C13.0290799,5.44915381 9.54736433,5.44915381 9.54736433,5.44915381 L9.54736433,10.8989067 Z M0,0 C2.470142,0 11.0257732,0 14.8619918,0 C20.4788952,0 23.3166699,2.27796915 23.3166699,7.28351056 C23.3166699,12.5247866 20.0088504,13.0951026 18.9546781,13.4344766 C19.8830967,13.7750487 24,15.0181219 24,20.448405 C24,25.4416654 19.9820074,28 16.2744602,28 C13.0159502,28 2.50515464,28 2.50515464,28 C2.50515464,28 2.50515464,6.96001198 2.50515464,5.01752284 C2.50515464,0.693425191 0.560494067,0.223753183 0,0 Z" id="Fill-1"></path>
                    <path d="M35.7622706,16.3486596 L42.5734208,16.3486596 L38.9013275,6.55354201 L35.7622706,16.3486596 M46.9419048,28 L44.6358091,21.7969148 L34.0127578,21.7969148 C34.0127578,21.7969148 33.3434455,23.8403475 33.174793,24.3870001 C32.5390346,26.4508013 34.2947284,27.9299086 34.3927411,28 C32.6629486,28 25,28 25,28 C25,28 32.236755,5.44915381 32.6873782,4.04642804 C33.7219572,0.825819979 32.10666,0.14138086 31.7328577,0 C34.0127578,0 43.5023344,0 43.5023344,0 L54,28 L46.9419048,28" id="Fill-2"></path>
                    <path d="M80,0 L67.5065106,0 C69.427014,0.64729669 69.4243487,2.66556837 68.3244644,3.95656732 C68.164842,4.14377715 66.6299199,5.95896361 64.4695387,8.51430283 L59.6189718,0 L50.1775577,0 L59.8576651,13.970346 C54.2773958,20.5718137 48,28 48,28 C48,28 58.442682,28 60.2029707,28 C59.926667,27.73551 57.9889871,26.029654 59.8179816,23.8661075 C59.977604,23.6776996 62.0372958,21.2418751 64.7843413,17.9931107 L70.5070566,28 L79.949063,28 L69.3189209,12.6308222 C74.5541807,6.44001797 80,0 80,0" id="Fill-3"></path>
                    <path d="M81,0 L91,0 L91,28 L83.3249559,28 C83.3249559,28 83.3249559,6.96001198 83.3249559,5.01752284 C83.3249559,0.693425191 81.5558608,0.223753183 81,0" id="Fill-4"></path>
                </g>
            </g>
        </g>
    </g>
</svg>